<svg xmlns="http://www.w3.org/2000/svg" xmlns:xlink="http://www.w3.org/1999/xlink" version="1.1" width="256" height="256" viewBox="0 0 256 256" xml:space="preserve">
<desc>Created with Fabric.js 1.7.22</desc>
<defs>
</defs>
<g transform="translate(128 128) scale(9.7 9.7)" style="">
	<g style="stroke: none; stroke-width: 0; stroke-dasharray: none; stroke-linecap: butt; stroke-linejoin: miter; stroke-miterlimit: 10; fill: none; fill-rule: nonzero; opacity: 1;" transform="translate(-13.049999999999999 -13.049999999999999) scale(0.29 0.29)" >
	<path d="M 72.159 71.296 H 1 c -0.552 0 -1 -0.447 -1 -1 V 19.704 c 0 -0.552 0.448 -1 1 -1 h 71.159 c 0.553 0 1 0.448 1 1 v 6.598 c 0 0.552 -0.447 1 -1 1 s -1 -0.448 -1 -1 v -5.598 H 2 v 48.592 h 69.159 v -5.598 c 0 -0.553 0.447 -1 1 -1 s 1 0.447 1 1 v 6.598 C 73.159 70.849 72.712 71.296 72.159 71.296 z" style="stroke: none; stroke-width: 1; stroke-dasharray: none; stroke-linecap: butt; stroke-linejoin: miter; stroke-miterlimit: 10; fill: rgb(0,0,0); fill-rule: nonzero; opacity: 1;" transform=" matrix(1 0 0 1 0 0) " stroke-linecap="round" />
	<path d="M 64.952 64.698 H 7.597 c -0.552 0 -1 -0.447 -1 -1 V 26.302 c 0 -0.552 0.448 -1 1 -1 h 57.355 c 0.553 0 1 0.448 1 1 v 3.414 c 0 0.552 -0.447 1 -1 1 s -1 -0.448 -1 -1 v -2.414 H 8.597 v 35.396 h 55.355 v -2.413 c 0 -0.553 0.447 -1 1 -1 s 1 0.447 1 1 v 3.413 C 65.952 64.251 65.505 64.698 64.952 64.698 z" style="stroke: none; stroke-width: 1; stroke-dasharray: none; stroke-linecap: butt; stroke-linejoin: miter; stroke-miterlimit: 10; fill: rgb(0,0,0); fill-rule: nonzero; opacity: 1;" transform=" matrix(1 0 0 1 0 0) " stroke-linecap="round" />
	<path d="M 7.597 64.698 c -0.242 0 -0.485 -0.088 -0.678 -0.265 c -0.406 -0.375 -0.431 -1.008 -0.057 -1.413 l 14.951 -16.203 c 0.187 -0.202 0.448 -0.319 0.723 -0.322 c 0.255 -0.027 0.539 0.107 0.731 0.305 l 5.687 5.884 l 13.147 -12.729 c 0.193 -0.187 0.454 -0.295 0.72 -0.281 c 0.268 0.006 0.522 0.12 0.706 0.316 l 7.07 7.547 c 0.378 0.403 0.357 1.036 -0.046 1.413 c -0.401 0.378 -1.036 0.358 -1.413 -0.046 l -6.376 -6.805 L 29.627 54.817 c -0.191 0.185 -0.449 0.271 -0.712 0.281 c -0.265 -0.005 -0.518 -0.114 -0.703 -0.305 l -5.646 -5.843 L 8.332 64.376 C 8.135 64.59 7.866 64.698 7.597 64.698 z" style="stroke: none; stroke-width: 1; stroke-dasharray: none; stroke-linecap: butt; stroke-linejoin: miter; stroke-miterlimit: 10; fill: rgb(0,0,0); fill-rule: nonzero; opacity: 1;" transform=" matrix(1 0 0 1 0 0) " stroke-linecap="round" />
	<path d="M 26.289 43.104 c -3.163 0 -5.735 -2.573 -5.735 -5.736 s 2.573 -5.736 5.735 -5.736 s 5.736 2.573 5.736 5.736 S 29.451 43.104 26.289 43.104 z M 26.289 33.633 c -2.06 0 -3.735 1.676 -3.735 3.736 s 1.676 3.736 3.735 3.736 c 2.06 0 3.736 -1.676 3.736 -3.736 S 28.349 33.633 26.289 33.633 z" style="stroke: none; stroke-width: 1; stroke-dasharray: none; stroke-linecap: butt; stroke-linejoin: miter; stroke-miterlimit: 10; fill: rgb(0,0,0); fill-rule: nonzero; opacity: 1;" transform=" matrix(1 0 0 1 0 0) " stroke-linecap="round" />
	<path d="M 72.159 64.695 c -1.008 0 -2.017 -0.259 -2.915 -0.778 l -12.01 -6.934 c -1.798 -1.038 -2.915 -2.973 -2.915 -5.05 V 38.066 c 0 -2.076 1.117 -4.011 2.915 -5.05 l 12.01 -6.934 c 1.797 -1.038 4.032 -1.038 5.831 0 l 12.009 6.933 C 88.883 34.055 90 35.99 90 38.066 v 13.867 c 0 2.077 -1.117 4.013 -2.916 5.05 l -12.009 6.934 C 74.176 64.437 73.167 64.695 72.159 64.695 z M 72.159 27.303 c -0.662 0 -1.324 0.171 -1.915 0.512 l -12.01 6.934 c -1.181 0.682 -1.915 1.954 -1.915 3.318 v 13.867 c 0 1.364 0.733 2.636 1.915 3.317 l 12.01 6.934 c 1.183 0.685 2.65 0.683 3.831 0 l 12.009 -6.934 C 87.266 54.569 88 53.298 88 51.934 V 38.066 c 0 -1.364 -0.734 -2.636 -1.916 -3.318 l -12.009 -6.933 C 73.484 27.474 72.821 27.303 72.159 27.303 z" style="stroke: none; stroke-width: 1; stroke-dasharray: none; stroke-linecap: butt; stroke-linejoin: miter; stroke-miterlimit: 10; fill: rgb(0,0,0); fill-rule: nonzero; opacity: 1;" transform=" matrix(1 0 0 1 0 0) " stroke-linecap="round" />
	<path d="M 66.36 51.343 c -0.34 0 -0.664 -0.174 -0.85 -0.473 l -4.782 -7.705 v 7.178 c 0 0.553 -0.447 1 -1 1 s -1 -0.447 -1 -1 V 39.658 c 0 -0.447 0.296 -0.839 0.726 -0.962 c 0.431 -0.124 0.889 0.055 1.124 0.435 l 4.782 7.705 v -7.177 c 0 -0.552 0.447 -1 1 -1 s 1 0.448 1 1 v 10.685 c 0 0.446 -0.296 0.839 -0.726 0.962 C 66.544 51.33 66.451 51.343 66.36 51.343 z" style="stroke: none; stroke-width: 1; stroke-dasharray: none; stroke-linecap: butt; stroke-linejoin: miter; stroke-miterlimit: 10; fill: rgb(0,0,0); fill-rule: nonzero; opacity: 1;" transform=" matrix(1 0 0 1 0 0) " stroke-linecap="round" />
	<path d="M 70.504 51.343 c -0.553 0 -1 -0.447 -1 -1 V 39.658 c 0 -0.552 0.447 -1 1 -1 h 4.737 c 0.553 0 1 0.448 1 1 s -0.447 1 -1 1 h -3.737 v 9.685 C 71.504 50.896 71.057 51.343 70.504 51.343 z" style="stroke: none; stroke-width: 1; stroke-dasharray: none; stroke-linecap: butt; stroke-linejoin: miter; stroke-miterlimit: 10; fill: rgb(0,0,0); fill-rule: nonzero; opacity: 1;" transform=" matrix(1 0 0 1 0 0) " stroke-linecap="round" />
	<path d="M 74.271 46 h -3.767 c -0.553 0 -1 -0.448 -1 -1 s 0.447 -1 1 -1 h 3.767 c 0.553 0 1 0.448 1 1 S 74.823 46 74.271 46 z" style="stroke: none; stroke-width: 1; stroke-dasharray: none; stroke-linecap: butt; stroke-linejoin: miter; stroke-miterlimit: 10; fill: rgb(0,0,0); fill-rule: nonzero; opacity: 1;" transform=" matrix(1 0 0 1 0 0) " stroke-linecap="round" />
	<path d="M 84.59 40.658 h -6.072 c -0.553 0 -1 -0.448 -1 -1 s 0.447 -1 1 -1 h 6.072 c 0.553 0 1 0.448 1 1 S 85.143 40.658 84.59 40.658 z" style="stroke: none; stroke-width: 1; stroke-dasharray: none; stroke-linecap: butt; stroke-linejoin: miter; stroke-miterlimit: 10; fill: rgb(0,0,0); fill-rule: nonzero; opacity: 1;" transform=" matrix(1 0 0 1 0 0) " stroke-linecap="round" />
	<path d="M 81.554 51.343 c -0.553 0 -1 -0.447 -1 -1 V 39.658 c 0 -0.552 0.447 -1 1 -1 s 1 0.448 1 1 v 10.685 C 82.554 50.896 82.106 51.343 81.554 51.343 z" style="stroke: none; stroke-width: 1; stroke-dasharray: none; stroke-linecap: butt; stroke-linejoin: miter; stroke-miterlimit: 10; fill: rgb(0,0,0); fill-rule: nonzero; opacity: 1;" transform=" matrix(1 0 0 1 0 0) " stroke-linecap="round" />
</g>
</g>
</svg>